<?xml version="1.0" standalone="no"?>
<!DOCTYPE svg PUBLIC "-//W3C//DTD SVG 20010904//EN"
 "http://www.w3.org/TR/2001/REC-SVG-20010904/DTD/svg10.dtd">
<svg version="1.0" xmlns="http://www.w3.org/2000/svg"
 width="835.000000pt" height="835.000000pt" viewBox="0 0 835.000000 835.000000"
 preserveAspectRatio="xMidYMid meet">
<metadata>
Created by potrace 1.11, written by Peter Selinger 2001-2013
</metadata>
<g transform="translate(0.000000,835.000000) scale(0.100000,-0.100000)"
fill="#000000" stroke="none">
<path d="M17 8340 c-9 -4 -12 -915 -12 -4170 l1 -4165 4167 0 c2798 0 4167 3
4168 10 1 5 2 1881 3 4168 1 2813 -2 4157 -9 4158 -40 4 -8308 3 -8318 -1z
m1179 -692 l2 -296 -397 -1 -397 0 2 297 c0 163 2 297 3 297 0 1 178 1 394 0
l392 0 1 -297z m5560 -1490 l1 -1786 -2581 1 -2581 2 -1 1780 c0 979 0 1782 2
1785 1 3 1163 6 2581 5 l2578 0 1 -1787z m1192 1492 l-3 -295 -395 0 -395 0
-1 285 c0 157 1 290 3 296 3 7 129 10 398 10 l395 0 -2 -296z m-6753 -715 c8
-41 2 -566 -7 -571 -11 -7 -778 -11 -779 -4 -6 20 -4 586 2 590 4 3 181 5 393
5 379 0 387 0 391 -20z m6753 -278 l2 -297 -75 0 c-41 -1 -199 -1 -350 -1
-151 0 -296 0 -323 1 l-47 0 0 288 c0 158 3 292 7 297 4 6 146 10 395 10 l388
-1 3 -297z m-6752 -994 l-1 -298 -392 0 c-216 0 -394 2 -394 5 -1 3 -3 137 -3
298 l-2 292 396 0 397 0 -1 -297z m6752 0 l-3 -298 -388 0 c-214 0 -392 2
-396 5 -4 3 -7 137 -7 298 l0 292 398 0 398 0 -2 -297z m-6752 -992 l-1 -296
-395 -2 -396 -1 0 298 0 299 397 -1 396 0 -1 -297z m6754 -1 l0 -298 -397 1
-398 2 0 297 0 297 397 -1 398 -1 0 -297z m-6759 -699 c3 0 6 -134 6 -296 l0
-295 -397 0 -396 0 0 298 0 298 391 -2 c214 -1 393 -2 396 -3z m5564 -1781 l0
-1785 -2580 0 -2580 0 -1 1780 c0 979 3 1782 7 1785 4 3 1166 5 2581 5 l2573
0 0 -1785z m1195 1488 l0 -298 -397 2 -398 3 0 290 c0 160 3 292 6 295 4 3
183 5 398 5 l391 1 0 -298z m-6774 -697 c21 -1 21 -3 20 -298 l-1 -296 -393
-1 c-215 -1 -393 1 -393 4 -1 3 -3 136 -3 297 -2 288 -2 292 18 295 18 3 695
2 752 -1z m6772 -296 l2 -300 -392 2 c-216 1 -395 2 -398 2 -8 1 -7 585 1 591
4 3 182 5 396 5 l388 -1 3 -299z m-6751 -993 l0 -297 -396 0 -397 0 0 297 0
298 396 0 396 0 1 -298z m6753 0 l0 -297 -392 1 c-216 1 -395 2 -398 3 -3 0
-5 134 -5 296 l0 295 397 0 398 0 0 -298z m-6757 -706 c2 -6 4 -140 4 -298 l0
-288 -397 0 -396 0 0 298 0 298 393 0 c270 0 393 -3 396 -10z m6757 -288 l0
-298 -397 2 -398 3 -1 285 c0 157 1 290 3 296 3 7 126 10 398 10 l395 0 0
-298z"/>
</g>
</svg>
